<?xml version="1.0" encoding="UTF-8" standalone="no"?><!-- Created with Inkscape (http://www.inkscape.org/) --><svg width="793.70081" height="1122.5197" viewBox="0 0 210 297" version="1.1" id="svg4323" inkscape:version="1.2.2 (732a01da63, 2022-12-09)" sodipodi:docname="VMan_Engine_Logo.svg" xml:space="preserve" xmlns:inkscape="http://www.inkscape.org/namespaces/inkscape" xmlns:sodipodi="http://sodipodi.sourceforge.net/DTD/sodipodi-0.dtd" xmlns="http://www.w3.org/2000/svg" xmlns:svg="http://www.w3.org/2000/svg"><sodipodi:namedview id="namedview4325" pagecolor="#fafafa" bordercolor="#262626" borderopacity="1" inkscape:pageshadow="0" inkscape:pageopacity="0" inkscape:pagecheckerboard="true" inkscape:document-units="px" showgrid="false" units="px" showborder="true" borderlayer="false" inkscape:showpageshadow="2" inkscape:deskcolor="#fafafa" inkscape:zoom="1.5005594" inkscape:cx="453.83075" inkscape:cy="460.16172" inkscape:window-width="1920" inkscape:window-height="996" inkscape:window-x="-8" inkscape:window-y="-8" inkscape:window-maximized="1" inkscape:current-layer="layer1" /><defs id="defs4320" /><g inkscape:label="Layer 1" inkscape:groupmode="layer" id="layer1"><path style="font-variation-settings:normal;opacity:1;vector-effect:none;fill:#cccccc;fill-opacity:1;stroke:#333333;stroke-width:0.79375;stroke-linecap:round;stroke-linejoin:round;stroke-miterlimit:4;stroke-dasharray:none;stroke-dashoffset:0;stroke-opacity:1;-inkscape-stroke:none;stop-color:#000000;stop-opacity:1" d="m 5.7470178,67.163271 13.4417042,40.989919 125.122588,-0.0189 2.77352,-8.462242 50.97395,-0.01434 V 74.249996 H 69.774714 L 67.437868,67.17332 Z" id="path2198" sodipodi:nodetypes="ccccccccc" /><text xml:space="preserve" style="font-style:normal;font-variant:normal;font-weight:normal;font-stretch:normal;font-size:55.1024px;line-height:1.25;font-family:Consolas;-inkscape-font-specification:Consolas;letter-spacing:-2.24612px;stroke-width:0.860978" x="6.0133867" y="42.153545" id="text289"><tspan sodipodi:role="line" id="tspan287" style="font-style:normal;font-variant:normal;font-weight:normal;font-stretch:normal;font-family:Consolas;-inkscape-font-specification:Consolas;stroke-width:0.860978" x="6.0133867" y="42.153545" dx="0" rotate="0 0 0 0 0">V<tspan style="letter-spacing:-3.13796px" id="tspan816">M</tspan><tspan style="letter-spacing:-5.57477px;stroke-width:0.860978" id="tspan694">an</tspan></tspan></text><text xml:space="preserve" style="font-style:normal;font-variant:normal;font-weight:normal;font-stretch:normal;font-size:23.8696px;line-height:1.25;font-family:Consolas;-inkscape-font-specification:Consolas;stroke-width:0.372963" x="114.66587" y="30.068928" id="text451"><tspan sodipodi:role="line" id="tspan449" style="font-style:normal;font-variant:normal;font-weight:bold;font-stretch:normal;font-family:Consolas;-inkscape-font-specification:'Consolas Bold';stroke-width:0.372963" x="114.66587" y="30.068928">Engine</tspan></text><text xml:space="preserve" style="font-style:normal;font-variant:normal;font-weight:normal;font-stretch:normal;font-size:15.2475px;line-height:1.25;font-family:Consolas;-inkscape-font-specification:Consolas;stroke-width:0.238242" x="115.42651" y="42.120899" id="text582"><tspan sodipodi:role="line" id="tspan580" style="font-style:normal;font-variant:normal;font-weight:bold;font-stretch:normal;font-family:Consolas;-inkscape-font-specification:'Consolas Bold';stroke-width:0.238242" x="115.42651" y="42.120899">FNF</tspan></text><g aria-label="VMan" id="text289-9" style="font-size:55.1024px;line-height:1.25;font-family:Consolas;-inkscape-font-specification:Consolas;letter-spacing:-2.24612px;stroke-width:0.79375;stroke-dasharray:none;stroke-linejoin:round"><path d="M 40.041443,69.970568 28.095414,105.13602 H 21.638102 L 9.961128,69.970568 h 5.407999 c 3.273381,10.206825 6.565217,20.407362 9.73978,30.645332 3.242241,-10.225091 6.539875,-20.432512 9.820497,-30.645332 z" id="path907" sodipodi:nodetypes="cccccccc" style="fill:#00a9ff;stroke:#003580;fill-opacity:1;stroke-opacity:1;stroke-width:0.79375;stroke-dasharray:none;stroke-linejoin:round" /><path d="m 66.880135,105.13602 h -4.681551 c -0.314737,-10.117054 -0.64,-20.233685 -0.995503,-30.349373 -2.067963,6.369625 -4.504318,12.610806 -6.833989,18.88764 h -3.309373 c -2.404143,-6.232172 -4.661898,-12.496686 -6.59184,-18.88764 -0.06248,10.120015 -0.435998,20.234129 -0.726448,30.349373 h -4.520118 l 1.72195,-35.165452 h 5.677054 c 2.120378,5.890707 4.235766,11.782528 6.268974,17.703799 1.910273,-5.98626 4.246552,-11.82437 6.457313,-17.703799 h 5.838487 z" style="letter-spacing:-3.13796px;fill:#00a9ff;stroke:#003580;fill-opacity:1;stroke-opacity:1;stroke-width:0.79375;stroke-dasharray:none;stroke-linejoin:round" id="path909" sodipodi:nodetypes="cccccccccccccc" /><path d="m 86.719448,105.13602 -0.107622,-3.63224 q -2.206248,2.17934 -4.493213,3.14794 -2.26006,0.9686 -4.762268,0.9686 -2.313871,0 -3.955104,-0.59193 -1.641234,-0.59192 -2.717453,-1.61432 -1.049313,-1.04932 -1.560517,-2.4484 -0.484299,-1.399085 -0.484299,-3.040319 0,-4.062726 3.013413,-6.349691 3.040318,-2.31387 8.959521,-2.31387 h 5.596338 v -2.367682 q 0,-2.394586 -1.533612,-3.820576 -1.533611,-1.452896 -4.681551,-1.452896 -2.286965,0 -4.520119,0.511204 -2.206249,0.511204 -4.57393,1.452896 v -4.224159 q 0.88788,-0.322866 1.964099,-0.618826 1.103124,-0.322865 2.313871,-0.565015 1.210746,-0.242149 2.529114,-0.376676 1.318368,-0.161433 2.663641,-0.161433 2.448398,0 4.412497,0.538109 1.964099,0.53811 3.309373,1.641234 1.372179,1.103124 2.098627,2.771263 0.726447,1.668139 0.726447,3.928199 V 105.13602 Z M 86.208244,92.840217 h -5.946109 q -1.748855,0 -3.013412,0.349771 -1.264557,0.349771 -2.071721,0.995503 -0.807165,0.645731 -1.210747,1.560517 -0.376676,0.88788 -0.376676,2.01791 0,0.780259 0.242149,1.506706 0.242149,0.699543 0.780259,1.264556 0.538109,0.53811 1.399084,0.86098 0.860975,0.32286 2.098627,0.32286 1.614328,0 3.686049,-0.96859 2.098627,-0.995507 4.412497,-3.121039 z" style="letter-spacing:-5.57477px;fill:#00a9ff;stroke:#003580;fill-opacity:1;stroke-opacity:1;stroke-width:0.79375;stroke-dasharray:none;stroke-linejoin:round" id="path911" /><path d="m 94.086207,78.122925 h 4.170348 l 0.188338,4.358686 q 1.183841,-1.399084 2.286967,-2.31387 1.10312,-0.941691 2.15244,-1.506706 1.07621,-0.565015 2.17934,-0.780259 1.10312,-0.242149 2.28696,-0.242149 4.17035,0 6.29588,2.475303 2.15244,2.448398 2.15244,7.399004 v 17.623086 h -4.68155 V 87.889611 q 0,-3.174846 -1.18384,-4.681552 -1.18384,-1.533612 -3.52462,-1.533612 -0.86097,0 -1.69504,0.269055 -0.80717,0.242149 -1.69505,0.887881 -0.88788,0.618825 -1.93719,1.695044 -1.02241,1.076219 -2.313871,2.690547 v 17.919046 h -4.681552 z" style="letter-spacing:-5.57477px;fill:#00a9ff;stroke:#003580;fill-opacity:1;stroke-opacity:1;stroke-width:0.79375;stroke-dasharray:none;stroke-linejoin:round" id="path913" /></g><g aria-label="Engine" id="text451-5" style="font-size:23.8696px;line-height:1.25;font-family:Consolas;-inkscape-font-specification:Consolas;stroke-width:0.79375;stroke-dasharray:none;stroke-linejoin:round"><path d="M 120.65052,93.051407 V 77.81822 h 9.17255 v 2.424256 h -6.25878 v 3.7879 h 5.9674 v 2.365981 h -5.9674 v 4.230794 h 6.25878 v 2.424256 z" style="font-weight:bold;-inkscape-font-specification:'Consolas Bold';fill:#0001d0;fill-opacity:1;stroke:#000854;stroke-opacity:1;stroke-width:0.79375;stroke-dasharray:none;stroke-linejoin:round" id="path894" /><path d="m 140.31264,93.051407 v -7.715662 q 0,-1.946398 -1.44523,-1.946398 -0.72261,0 -1.38695,0.582754 -0.65269,0.582754 -1.38696,1.585091 v 7.494215 h -2.84384 v -11.84156 h 2.45922 l 0.0699,1.748262 q 0.3613,-0.454548 0.74592,-0.82751 0.39627,-0.372963 0.85082,-0.629375 0.45455,-0.268067 0.97903,-0.407927 0.52448,-0.139861 1.17716,-0.139861 0.9091,0 1.58509,0.303032 0.676,0.291377 1.13054,0.839165 0.45455,0.536134 0.676,1.305369 0.2331,0.75758 0.2331,1.701641 v 7.948764 z" style="font-weight:bold;-inkscape-font-specification:'Consolas Bold';fill:#0001d0;fill-opacity:1;stroke:#000854;stroke-opacity:1;stroke-width:0.79375;stroke-dasharray:none;stroke-linejoin:round" id="path896" /><path d="m 155.25445,83.284451 q 0.32634,0.407928 0.45455,0.862476 0.13986,0.442893 0.13986,0.909096 0,0.990682 -0.34965,1.748262 -0.338,0.75758 -0.96737,1.270403 -0.61772,0.512824 -1.49185,0.780891 -0.86248,0.256411 -1.91144,0.256411 -0.61772,0 -1.14219,-0.11655 -0.52448,-0.128206 -0.79255,-0.291377 -0.19814,0.198136 -0.338,0.442893 -0.13986,0.233101 -0.13986,0.536133 0,0.186481 0.0932,0.372963 0.0932,0.186481 0.26807,0.337997 0.18648,0.139861 0.43124,0.233102 0.25641,0.09324 0.5711,0.104895 l 2.80887,0.104896 q 0.94406,0.02331 1.70164,0.244757 0.76924,0.209791 1.31703,0.606064 0.54778,0.396272 0.83916,0.967371 0.30303,0.559444 0.30303,1.282059 0,0.82751 -0.37296,1.56178 -0.37296,0.73427 -1.13054,1.270404 -0.74593,0.547789 -1.86481,0.862476 -1.11889,0.314687 -2.59909,0.314687 -1.43357,0 -2.47087,-0.233102 -1.02565,-0.221446 -1.68999,-0.629374 -0.65268,-0.407928 -0.96737,-0.979027 -0.31469,-0.559443 -0.31469,-1.235438 0,-0.407928 0.1049,-0.75758 0.10489,-0.349652 0.31468,-0.675995 0.2098,-0.314687 0.52448,-0.617719 0.31469,-0.303032 0.74593,-0.606064 -0.5711,-0.326342 -0.87413,-0.839165 -0.29138,-0.512824 -0.29138,-1.095578 0,-0.396272 0.1049,-0.73427 0.10489,-0.349652 0.26806,-0.664339 0.17483,-0.314687 0.39627,-0.606064 0.22145,-0.291377 0.46621,-0.571099 -0.43124,-0.431238 -0.72262,-1.037302 -0.27972,-0.617719 -0.27972,-1.53847 0,-0.990682 0.34965,-1.759917 0.36131,-0.78089 0.99069,-1.305369 0.62937,-0.536134 1.49185,-0.8042 0.87413,-0.279722 1.89977,-0.279722 0.52448,0 1.00234,0.05827 0.48951,0.04662 0.88579,0.174826 h 4.10258 v 2.074604 z m -6.70167,11.340391 q 0,0.68765 0.68765,1.013992 0.69931,0.326342 1.95805,0.326342 0.8042,0 1.35199,-0.151516 0.55945,-0.151516 0.9091,-0.396272 0.34965,-0.244757 0.50117,-0.571099 0.15151,-0.326342 0.15151,-0.675995 0,-0.314687 -0.15151,-0.536133 -0.13986,-0.209792 -0.40793,-0.361308 -0.25641,-0.139861 -0.61772,-0.221446 -0.34965,-0.06993 -0.78089,-0.09324 l -2.50584,-0.04662 q -0.338,0.233101 -0.55945,0.442893 -0.20979,0.209791 -0.33799,0.407928 -0.11655,0.209791 -0.16317,0.419582 -0.035,0.209792 -0.035,0.442893 z m 0.47786,-9.498888 q 0,0.944061 0.54779,1.503505 0.55944,0.547788 1.55012,0.547788 0.52448,0 0.9091,-0.174826 0.39627,-0.174826 0.65268,-0.466203 0.25642,-0.291377 0.38462,-0.675994 0.12821,-0.384618 0.12821,-0.804201 0,-0.990681 -0.55945,-1.53847 -0.54779,-0.559444 -1.53847,-0.559444 -0.52448,0 -0.92075,0.174826 -0.38462,0.174826 -0.64103,0.477858 -0.25641,0.291377 -0.38462,0.68765 -0.1282,0.396273 -0.1282,0.827511 z" style="font-weight:bold;-inkscape-font-specification:'Consolas Bold';fill:#0001d0;fill-opacity:1;stroke:#000854;stroke-opacity:1;stroke-width:0.79375;stroke-dasharray:none;stroke-linejoin:round" id="path898" /><path d="m 166.46664,77.969736 q 0,0.384617 -0.13987,0.722614 -0.13986,0.337998 -0.39627,0.594409 -0.24476,0.244757 -0.58275,0.396273 -0.338,0.139861 -0.73427,0.139861 -0.39627,0 -0.74593,-0.139861 -0.33799,-0.151516 -0.59441,-0.396273 -0.24475,-0.256411 -0.38461,-0.594409 -0.13986,-0.337997 -0.13986,-0.722614 0,-0.384618 0.13986,-0.722615 0.13986,-0.337998 0.38461,-0.594409 0.25642,-0.256412 0.59441,-0.396273 0.34966,-0.151516 0.74593,-0.151516 0.39627,0 0.73427,0.151516 0.33799,0.139861 0.58275,0.396273 0.25641,0.256411 0.39627,0.594409 0.13987,0.337997 0.13987,0.722615 z m -3.14688,5.454576 h -3.345 v -2.214465 h 6.25877 v 9.627095 h 3.41494 v 2.214465 h -10.08164 v -2.214465 h 3.75293 z" style="font-weight:bold;-inkscape-font-specification:'Consolas Bold';fill:#0001d0;fill-opacity:1;stroke:#000854;stroke-opacity:1;stroke-width:0.79375;stroke-dasharray:none;stroke-linejoin:round" id="path900" /><path d="m 179.68349,93.051407 v -7.715662 q 0,-1.946398 -1.44522,-1.946398 -0.72262,0 -1.38696,0.582754 -0.65268,0.582754 -1.38695,1.585091 v 7.494215 h -2.84384 v -11.84156 h 2.45922 l 0.0699,1.748262 q 0.36131,-0.454548 0.74592,-0.82751 0.39628,-0.372963 0.85083,-0.629375 0.45454,-0.268067 0.97902,-0.407927 0.52448,-0.139861 1.17716,-0.139861 0.9091,0 1.5851,0.303032 0.67599,0.291377 1.13054,0.839165 0.45455,0.536134 0.67599,1.305369 0.2331,0.75758 0.2331,1.701641 v 7.948764 z" style="font-weight:bold;-inkscape-font-specification:'Consolas Bold';fill:#0001d0;fill-opacity:1;stroke:#000854;stroke-opacity:1;stroke-width:0.79375;stroke-dasharray:none;stroke-linejoin:round" id="path902" /><path d="m 196.05888,86.221531 q 0,0.291377 -0.0233,0.75758 -0.0117,0.466203 -0.0466,0.874131 h -7.7856 q 0,0.78089 0.23311,1.375299 0.24475,0.594409 0.67599,1.002337 0.44289,0.396273 1.04896,0.606064 0.61772,0.209791 1.36364,0.209791 0.86248,0 1.8415,-0.128205 0.99069,-0.139861 2.0513,-0.442893 v 2.261085 q -0.45455,0.128206 -0.99068,0.233101 -0.53614,0.104896 -1.09558,0.186482 -0.55945,0.08159 -1.13054,0.11655 -0.5711,0.04662 -1.10724,0.04662 -1.35199,0 -2.42425,-0.384618 -1.07227,-0.384618 -1.81819,-1.130543 -0.74593,-0.75758 -1.1422,-1.864812 -0.39628,-1.107232 -0.39628,-2.564117 0,-1.44523 0.39628,-2.622393 0.39627,-1.188818 1.11889,-2.027983 0.72261,-0.850821 1.74826,-1.305369 1.0373,-0.466203 2.3077,-0.466203 1.25875,0 2.22612,0.396272 0.96737,0.384618 1.62006,1.083923 0.65268,0.699304 0.99068,1.666676 0.338,0.967371 0.338,2.121224 z m -2.89046,-0.407928 q 0.0117,-0.699304 -0.17483,-1.212128 -0.18648,-0.524478 -0.51282,-0.862476 -0.31469,-0.337997 -0.74593,-0.501168 -0.41958,-0.163171 -0.90909,-0.163171 -1.07227,0 -1.75992,0.722615 -0.68765,0.710959 -0.81586,2.016328 z" style="font-weight:bold;-inkscape-font-specification:'Consolas Bold';fill:#0001d0;fill-opacity:1;stroke:#000854;stroke-opacity:1;stroke-width:0.79375;stroke-dasharray:none;stroke-linejoin:round" id="path904" /></g><g aria-label="FNF" id="text582-5" style="font-size:15.2475px;line-height:1.25;font-family:Consolas;-inkscape-font-specification:Consolas;stroke-width:0.79375;stroke-dasharray:none;fill:#f9f9f9;stroke:#666666;stroke-linecap:round;stroke-linejoin:round"><path d="m 122.49779,96.921248 v 2.695115 h 3.67787 v 1.503907 h -3.67787 v 3.98311 h -1.86127 v -9.730706 h 5.7476 v 1.548574 z" style="font-weight:bold;-inkscape-font-specification:'Consolas Bold';stroke-width:0.79375;stroke-dasharray:none;fill:#f9f9f9;stroke:#666666;stroke-linecap:round;stroke-linejoin:round" id="path887" /><path d="m 133.15913,105.10338 c -1.04916,-2.35189 -2.12733,-4.69082 -3.14182,-7.057927 0,2.352647 0,4.705287 0,7.057927 h -1.66769 v -9.730706 h 2.24841 c 1.04019,2.329006 2.15563,4.62459 3.12693,6.983476 0,-2.32783 0,-4.655651 0,-6.983476 h 1.66769 v 9.730706 z" style="font-weight:bold;-inkscape-font-specification:'Consolas Bold';stroke-width:0.79375;stroke-dasharray:none;fill:#f9f9f9;stroke:#666666;stroke-linecap:round;stroke-linejoin:round" id="path889" sodipodi:nodetypes="ccccccccccc" /><path d="m 139.26409,96.921248 v 2.695115 h 3.67786 v 1.503907 h -3.67786 v 3.98311 h -1.86127 v -9.730706 h 5.74759 v 1.548574 z" style="font-weight:bold;-inkscape-font-specification:'Consolas Bold';stroke-width:0.79375;stroke-dasharray:none;fill:#f9f9f9;stroke:#666666;stroke-linecap:round;stroke-linejoin:round" id="path891" /></g><rect style="font-variation-settings:normal;opacity:1;fill:#76d7ff;fill-opacity:1;stroke:#004454;stroke-width:1.05833334;stroke-linecap:round;stroke-linejoin:round;stroke-miterlimit:4;stroke-dasharray:none;stroke-dashoffset:0;stroke-opacity:1;paint-order:stroke markers fill;stop-color:#000000;stop-opacity:1" id="rect2456" width="1.5463724" height="1.8720912" x="159.6891" y="94.684341" /><rect style="font-variation-settings:normal;opacity:1;fill:#69ff3d;fill-opacity:1;stroke:#004400;stroke-width:1.05833334;stroke-linecap:round;stroke-linejoin:round;stroke-miterlimit:4;stroke-dasharray:none;stroke-dashoffset:0;stroke-opacity:1;paint-order:stroke markers fill;stop-color:#000000;stop-opacity:1" id="rect2489" width="1.5463724" height="1.8720912" x="162.59958" y="94.684341" /><rect style="font-variation-settings:normal;opacity:1;fill:#c24b99;fill-opacity:1;stroke:#3c1f56;stroke-width:1.05833334;stroke-linecap:round;stroke-linejoin:round;stroke-miterlimit:4;stroke-dasharray:none;stroke-dashoffset:0;stroke-opacity:1;paint-order:stroke markers fill;stop-color:#000000;stop-opacity:1" id="rect2491" width="1.5463724" height="1.8720912" x="165.48805" y="94.684341" /><rect style="font-variation-settings:normal;opacity:1;fill:#00ffff;fill-opacity:1;stroke:#1542b7;stroke-width:1.05833334;stroke-linecap:round;stroke-linejoin:round;stroke-miterlimit:4;stroke-dasharray:none;stroke-dashoffset:0;stroke-opacity:1;paint-order:stroke markers fill;stop-color:#000000;stop-opacity:1" id="rect2493" width="1.5463724" height="1.8720912" x="168.39847" y="94.684341" /><rect style="font-variation-settings:normal;opacity:1;fill:#12fa05;fill-opacity:1;stroke:#0a4447;stroke-width:1.05833334;stroke-linecap:round;stroke-linejoin:round;stroke-miterlimit:4;stroke-dasharray:none;stroke-dashoffset:0;stroke-opacity:1;paint-order:stroke markers fill;stop-color:#000000;stop-opacity:1" id="rect2495" width="1.5463724" height="1.8720912" x="171.24324" y="94.684341" /><rect style="font-variation-settings:normal;opacity:1;fill:#f9393f;fill-opacity:1;stroke:#651038;stroke-width:1.05833334;stroke-linecap:round;stroke-linejoin:round;stroke-miterlimit:4;stroke-dasharray:none;stroke-dashoffset:0;stroke-opacity:1;paint-order:stroke markers fill;stop-color:#000000;stop-opacity:1" id="rect2497" width="1.5463724" height="1.8720912" x="174.15366" y="94.684341" /><rect style="font-variation-settings:normal;opacity:1;fill:#cccccc;fill-opacity:1;stroke:#3e3e3e;stroke-width:1.05833334;stroke-linecap:round;stroke-linejoin:round;stroke-miterlimit:4;stroke-dasharray:none;stroke-dashoffset:0;stroke-opacity:1;paint-order:stroke markers fill;stop-color:#000000;stop-opacity:1" id="rect2499" width="1.5463724" height="1.8720912" x="177.04218" y="94.684341" /><rect style="font-variation-settings:normal;opacity:1;fill:#f2f20b;fill-opacity:1;stroke:#9b6a00;stroke-width:1.05833334;stroke-linecap:round;stroke-linejoin:round;stroke-miterlimit:4;stroke-dasharray:none;stroke-dashoffset:0;stroke-opacity:1;paint-order:stroke markers fill;stop-color:#000000;stop-opacity:1" id="rect2501" width="1.5463724" height="1.8720912" x="179.95262" y="94.684341" /><rect style="font-variation-settings:normal;opacity:1;fill:#823cff;fill-opacity:1;stroke:#380f84;stroke-width:1.05833334;stroke-linecap:round;stroke-linejoin:round;stroke-miterlimit:4;stroke-dasharray:none;stroke-dashoffset:0;stroke-opacity:1;paint-order:stroke markers fill;stop-color:#000000;stop-opacity:1" id="rect2503" width="1.5463724" height="1.8720912" x="182.84113" y="94.684341" /><rect style="font-variation-settings:normal;opacity:1;fill:#ff7700;fill-opacity:1;stroke:#663000;stroke-width:1.05833334;stroke-linecap:round;stroke-linejoin:round;stroke-miterlimit:4;stroke-dasharray:none;stroke-dashoffset:0;stroke-opacity:1;paint-order:stroke markers fill;stop-color:#000000;stop-opacity:1" id="rect2505" width="1.5463724" height="1.8720912" x="185.75154" y="94.684341" /><rect style="font-variation-settings:normal;opacity:1;fill:#0033ff;fill-opacity:1;stroke:#000075;stroke-width:1.05833334;stroke-linecap:round;stroke-linejoin:round;stroke-miterlimit:4;stroke-dasharray:none;stroke-dashoffset:0;stroke-opacity:1;paint-order:stroke markers fill;stop-color:#000000;stop-opacity:1" id="rect2507" width="1.5463724" height="1.8720912" x="188.64006" y="94.684341" /><rect style="font-variation-settings:normal;opacity:1;fill:#e30000;fill-opacity:1;stroke:#300c00;stroke-width:1.05833334;stroke-linecap:round;stroke-linejoin:round;stroke-miterlimit:4;stroke-dasharray:none;stroke-dashoffset:0;stroke-opacity:1;paint-order:stroke markers fill;stop-color:#000000;stop-opacity:1" id="rect2509" width="1.5463724" height="1.8720912" x="191.55052" y="94.684341" /><rect style="font-variation-settings:normal;fill:#e14eff;fill-opacity:1;stroke:#270054;stroke-width:1.05833334;stroke-linecap:round;stroke-linejoin:round;stroke-miterlimit:4;stroke-dasharray:none;stroke-dashoffset:0;stroke-opacity:1;paint-order:stroke markers fill;stop-color:#000000" id="rect2489-9" width="1.5463724" height="1.8720912" x="194.45787" y="94.672577" /><path style="font-variation-settings:normal;vector-effect:none;fill:#cccccc;fill-opacity:1;stroke:#333333;stroke-width:0.79375;stroke-linecap:round;stroke-linejoin:round;stroke-miterlimit:4;stroke-dasharray:none;stroke-dashoffset:0;stroke-opacity:1;-inkscape-stroke:none;stop-color:#000000" d="m 7.8747595,113.86327 13.4417035,40.98991 99.778737,-0.0189 2.77352,-8.46224 76.3178,-0.0143 V 120.94999 H 71.902455 l -2.336846,-7.07667 z" id="path2198-1" sodipodi:nodetypes="ccccccccc" /><g aria-label="VMan" id="text289-9-8" style="font-size:55.1024px;line-height:1.25;font-family:Consolas;-inkscape-font-specification:Consolas;letter-spacing:-2.24612px;stroke-width:0.79375;stroke-linejoin:round;stroke-dasharray:none" transform="translate(2.1277417,46.699997)"><path d="M 40.041443,69.970568 28.095414,105.13602 H 21.638102 L 9.961128,69.970568 h 5.407999 c 3.273381,10.206825 6.565217,20.407362 9.73978,30.645332 3.242241,-10.225091 6.539875,-20.432512 9.820497,-30.645332 z" id="path907-9" sodipodi:nodetypes="cccccccc" style="fill:#00a9ff;fill-opacity:1;stroke:#003580;stroke-width:0.79375;stroke-linejoin:round;stroke-dasharray:none;stroke-opacity:1" /><path d="m 66.880135,105.13602 h -4.681551 c -0.314737,-10.117054 -0.64,-20.233685 -0.995503,-30.349373 -2.067963,6.369625 -4.504318,12.610806 -6.833989,18.88764 h -3.309373 c -2.404143,-6.232172 -4.661898,-12.496686 -6.59184,-18.88764 -0.06248,10.120015 -0.435998,20.234129 -0.726448,30.349373 h -4.520118 l 1.72195,-35.165452 h 5.677054 c 2.120378,5.890707 4.235766,11.782528 6.268974,17.703799 1.910273,-5.98626 4.246552,-11.82437 6.457313,-17.703799 h 5.838487 z" style="letter-spacing:-3.13796px;fill:#00a9ff;fill-opacity:1;stroke:#003580;stroke-width:0.79375;stroke-linejoin:round;stroke-dasharray:none;stroke-opacity:1" id="path909-4" sodipodi:nodetypes="cccccccccccccc" /><path d="m 86.719448,105.13602 -0.107622,-3.63224 q -2.206248,2.17934 -4.493213,3.14794 -2.26006,0.9686 -4.762268,0.9686 -2.313871,0 -3.955104,-0.59193 -1.641234,-0.59192 -2.717453,-1.61432 -1.049313,-1.04932 -1.560517,-2.4484 -0.484299,-1.399085 -0.484299,-3.040319 0,-4.062726 3.013413,-6.349691 3.040318,-2.31387 8.959521,-2.31387 h 5.596338 v -2.367682 q 0,-2.394586 -1.533612,-3.820576 -1.533611,-1.452896 -4.681551,-1.452896 -2.286965,0 -4.520119,0.511204 -2.206249,0.511204 -4.57393,1.452896 v -4.224159 q 0.88788,-0.322866 1.964099,-0.618826 1.103124,-0.322865 2.313871,-0.565015 1.210746,-0.242149 2.529114,-0.376676 1.318368,-0.161433 2.663641,-0.161433 2.448398,0 4.412497,0.538109 1.964099,0.53811 3.309373,1.641234 1.372179,1.103124 2.098627,2.771263 0.726447,1.668139 0.726447,3.928199 V 105.13602 Z M 86.208244,92.840217 h -5.946109 q -1.748855,0 -3.013412,0.349771 -1.264557,0.349771 -2.071721,0.995503 -0.807165,0.645731 -1.210747,1.560517 -0.376676,0.88788 -0.376676,2.01791 0,0.780259 0.242149,1.506706 0.242149,0.699543 0.780259,1.264556 0.538109,0.53811 1.399084,0.86098 0.860975,0.32286 2.098627,0.32286 1.614328,0 3.686049,-0.96859 2.098627,-0.995507 4.412497,-3.121039 z" style="letter-spacing:-5.57477px;fill:#00a9ff;fill-opacity:1;stroke:#003580;stroke-width:0.79375;stroke-linejoin:round;stroke-dasharray:none;stroke-opacity:1" id="path911-3" /><path d="m 94.086207,78.122925 h 4.170348 l 0.188338,4.358686 q 1.183841,-1.399084 2.286967,-2.31387 1.10312,-0.941691 2.15244,-1.506706 1.07621,-0.565015 2.17934,-0.780259 1.10312,-0.242149 2.28696,-0.242149 4.17035,0 6.29588,2.475303 2.15244,2.448398 2.15244,7.399004 v 17.623086 h -4.68155 V 87.889611 q 0,-3.174846 -1.18384,-4.681552 -1.18384,-1.533612 -3.52462,-1.533612 -0.86097,0 -1.69504,0.269055 -0.80717,0.242149 -1.69505,0.887881 -0.88788,0.618825 -1.93719,1.695044 -1.02241,1.076219 -2.313871,2.690547 v 17.919046 h -4.681552 z" style="letter-spacing:-5.57477px;fill:#00a9ff;fill-opacity:1;stroke:#003580;stroke-width:0.79375;stroke-linejoin:round;stroke-dasharray:none;stroke-opacity:1" id="path913-9" /></g><g aria-label="Engine" id="text451-5-7" style="font-size:23.8696px;line-height:1.25;font-family:Consolas;-inkscape-font-specification:Consolas;stroke-width:0.79375;stroke-linejoin:round;stroke-dasharray:none" transform="translate(2.1277417,46.699997)"><path d="M 120.65052,93.051407 V 77.81822 h 9.17255 v 2.424256 h -6.25878 v 3.7879 h 5.9674 v 2.365981 h -5.9674 v 4.230794 h 6.25878 v 2.424256 z" style="font-weight:bold;-inkscape-font-specification:'Consolas Bold';fill:#0001d0;fill-opacity:1;stroke:#000854;stroke-width:0.79375;stroke-linejoin:round;stroke-dasharray:none;stroke-opacity:1" id="path894-9" /><path d="m 140.31264,93.051407 v -7.715662 q 0,-1.946398 -1.44523,-1.946398 -0.72261,0 -1.38695,0.582754 -0.65269,0.582754 -1.38696,1.585091 v 7.494215 h -2.84384 v -11.84156 h 2.45922 l 0.0699,1.748262 q 0.3613,-0.454548 0.74592,-0.82751 0.39627,-0.372963 0.85082,-0.629375 0.45455,-0.268067 0.97903,-0.407927 0.52448,-0.139861 1.17716,-0.139861 0.9091,0 1.58509,0.303032 0.676,0.291377 1.13054,0.839165 0.45455,0.536134 0.676,1.305369 0.2331,0.75758 0.2331,1.701641 v 7.948764 z" style="font-weight:bold;-inkscape-font-specification:'Consolas Bold';fill:#0001d0;fill-opacity:1;stroke:#000854;stroke-width:0.79375;stroke-linejoin:round;stroke-dasharray:none;stroke-opacity:1" id="path896-5" /><path d="m 155.25445,83.284451 q 0.32634,0.407928 0.45455,0.862476 0.13986,0.442893 0.13986,0.909096 0,0.990682 -0.34965,1.748262 -0.338,0.75758 -0.96737,1.270403 -0.61772,0.512824 -1.49185,0.780891 -0.86248,0.256411 -1.91144,0.256411 -0.61772,0 -1.14219,-0.11655 -0.52448,-0.128206 -0.79255,-0.291377 -0.19814,0.198136 -0.338,0.442893 -0.13986,0.233101 -0.13986,0.536133 0,0.186481 0.0932,0.372963 0.0932,0.186481 0.26807,0.337997 0.18648,0.139861 0.43124,0.233102 0.25641,0.09324 0.5711,0.104895 l 2.80887,0.104896 q 0.94406,0.02331 1.70164,0.244757 0.76924,0.209791 1.31703,0.606064 0.54778,0.396272 0.83916,0.967371 0.30303,0.559444 0.30303,1.282059 0,0.82751 -0.37296,1.56178 -0.37296,0.73427 -1.13054,1.270404 -0.74593,0.547789 -1.86481,0.862476 -1.11889,0.314687 -2.59909,0.314687 -1.43357,0 -2.47087,-0.233102 -1.02565,-0.221446 -1.68999,-0.629374 -0.65268,-0.407928 -0.96737,-0.979027 -0.31469,-0.559443 -0.31469,-1.235438 0,-0.407928 0.1049,-0.75758 0.10489,-0.349652 0.31468,-0.675995 0.2098,-0.314687 0.52448,-0.617719 0.31469,-0.303032 0.74593,-0.606064 -0.5711,-0.326342 -0.87413,-0.839165 -0.29138,-0.512824 -0.29138,-1.095578 0,-0.396272 0.1049,-0.73427 0.10489,-0.349652 0.26806,-0.664339 0.17483,-0.314687 0.39627,-0.606064 0.22145,-0.291377 0.46621,-0.571099 -0.43124,-0.431238 -0.72262,-1.037302 -0.27972,-0.617719 -0.27972,-1.53847 0,-0.990682 0.34965,-1.759917 0.36131,-0.78089 0.99069,-1.305369 0.62937,-0.536134 1.49185,-0.8042 0.87413,-0.279722 1.89977,-0.279722 0.52448,0 1.00234,0.05827 0.48951,0.04662 0.88579,0.174826 h 4.10258 v 2.074604 z m -6.70167,11.340391 q 0,0.68765 0.68765,1.013992 0.69931,0.326342 1.95805,0.326342 0.8042,0 1.35199,-0.151516 0.55945,-0.151516 0.9091,-0.396272 0.34965,-0.244757 0.50117,-0.571099 0.15151,-0.326342 0.15151,-0.675995 0,-0.314687 -0.15151,-0.536133 -0.13986,-0.209792 -0.40793,-0.361308 -0.25641,-0.139861 -0.61772,-0.221446 -0.34965,-0.06993 -0.78089,-0.09324 l -2.50584,-0.04662 q -0.338,0.233101 -0.55945,0.442893 -0.20979,0.209791 -0.33799,0.407928 -0.11655,0.209791 -0.16317,0.419582 -0.035,0.209792 -0.035,0.442893 z m 0.47786,-9.498888 q 0,0.944061 0.54779,1.503505 0.55944,0.547788 1.55012,0.547788 0.52448,0 0.9091,-0.174826 0.39627,-0.174826 0.65268,-0.466203 0.25642,-0.291377 0.38462,-0.675994 0.12821,-0.384618 0.12821,-0.804201 0,-0.990681 -0.55945,-1.53847 -0.54779,-0.559444 -1.53847,-0.559444 -0.52448,0 -0.92075,0.174826 -0.38462,0.174826 -0.64103,0.477858 -0.25641,0.291377 -0.38462,0.68765 -0.1282,0.396273 -0.1282,0.827511 z" style="font-weight:bold;-inkscape-font-specification:'Consolas Bold';fill:#0001d0;fill-opacity:1;stroke:#000854;stroke-width:0.79375;stroke-linejoin:round;stroke-dasharray:none;stroke-opacity:1" id="path898-0" /><path d="m 166.46664,77.969736 q 0,0.384617 -0.13987,0.722614 -0.13986,0.337998 -0.39627,0.594409 -0.24476,0.244757 -0.58275,0.396273 -0.338,0.139861 -0.73427,0.139861 -0.39627,0 -0.74593,-0.139861 -0.33799,-0.151516 -0.59441,-0.396273 -0.24475,-0.256411 -0.38461,-0.594409 -0.13986,-0.337997 -0.13986,-0.722614 0,-0.384618 0.13986,-0.722615 0.13986,-0.337998 0.38461,-0.594409 0.25642,-0.256412 0.59441,-0.396273 0.34966,-0.151516 0.74593,-0.151516 0.39627,0 0.73427,0.151516 0.33799,0.139861 0.58275,0.396273 0.25641,0.256411 0.39627,0.594409 0.13987,0.337997 0.13987,0.722615 z m -3.14688,5.454576 h -3.345 v -2.214465 h 6.25877 v 9.627095 h 3.41494 v 2.214465 h -10.08164 v -2.214465 h 3.75293 z" style="font-weight:bold;-inkscape-font-specification:'Consolas Bold';fill:#0001d0;fill-opacity:1;stroke:#000854;stroke-width:0.79375;stroke-linejoin:round;stroke-dasharray:none;stroke-opacity:1" id="path900-3" /><path d="m 179.68349,93.051407 v -7.715662 q 0,-1.946398 -1.44522,-1.946398 -0.72262,0 -1.38696,0.582754 -0.65268,0.582754 -1.38695,1.585091 v 7.494215 h -2.84384 v -11.84156 h 2.45922 l 0.0699,1.748262 q 0.36131,-0.454548 0.74592,-0.82751 0.39628,-0.372963 0.85083,-0.629375 0.45454,-0.268067 0.97902,-0.407927 0.52448,-0.139861 1.17716,-0.139861 0.9091,0 1.5851,0.303032 0.67599,0.291377 1.13054,0.839165 0.45455,0.536134 0.67599,1.305369 0.2331,0.75758 0.2331,1.701641 v 7.948764 z" style="font-weight:bold;-inkscape-font-specification:'Consolas Bold';fill:#0001d0;fill-opacity:1;stroke:#000854;stroke-width:0.79375;stroke-linejoin:round;stroke-dasharray:none;stroke-opacity:1" id="path902-2" /><path d="m 196.05888,86.221531 q 0,0.291377 -0.0233,0.75758 -0.0117,0.466203 -0.0466,0.874131 h -7.7856 q 0,0.78089 0.23311,1.375299 0.24475,0.594409 0.67599,1.002337 0.44289,0.396273 1.04896,0.606064 0.61772,0.209791 1.36364,0.209791 0.86248,0 1.8415,-0.128205 0.99069,-0.139861 2.0513,-0.442893 v 2.261085 q -0.45455,0.128206 -0.99068,0.233101 -0.53614,0.104896 -1.09558,0.186482 -0.55945,0.08159 -1.13054,0.11655 -0.5711,0.04662 -1.10724,0.04662 -1.35199,0 -2.42425,-0.384618 -1.07227,-0.384618 -1.81819,-1.130543 -0.74593,-0.75758 -1.1422,-1.864812 -0.39628,-1.107232 -0.39628,-2.564117 0,-1.44523 0.39628,-2.622393 0.39627,-1.188818 1.11889,-2.027983 0.72261,-0.850821 1.74826,-1.305369 1.0373,-0.466203 2.3077,-0.466203 1.25875,0 2.22612,0.396272 0.96737,0.384618 1.62006,1.083923 0.65268,0.699304 0.99068,1.666676 0.338,0.967371 0.338,2.121224 z m -2.89046,-0.407928 q 0.0117,-0.699304 -0.17483,-1.212128 -0.18648,-0.524478 -0.51282,-0.862476 -0.31469,-0.337997 -0.74593,-0.501168 -0.41958,-0.163171 -0.90909,-0.163171 -1.07227,0 -1.75992,0.722615 -0.68765,0.710959 -0.81586,2.016328 z" style="font-weight:bold;-inkscape-font-specification:'Consolas Bold';fill:#0001d0;fill-opacity:1;stroke:#000854;stroke-width:0.79375;stroke-linejoin:round;stroke-dasharray:none;stroke-opacity:1" id="path904-8" /></g><rect style="font-variation-settings:normal;fill:#76d7ff;fill-opacity:1;stroke:#004454;stroke-width:1.05833;stroke-linecap:round;stroke-linejoin:round;stroke-miterlimit:4;stroke-dasharray:none;stroke-dashoffset:0;stroke-opacity:1;paint-order:stroke markers fill;stop-color:#000000" id="rect2456-0" width="1.5463724" height="1.8720912" x="161.81683" y="141.38434" /><rect style="font-variation-settings:normal;fill:#69ff3d;fill-opacity:1;stroke:#004400;stroke-width:1.05833;stroke-linecap:round;stroke-linejoin:round;stroke-miterlimit:4;stroke-dasharray:none;stroke-dashoffset:0;stroke-opacity:1;paint-order:stroke markers fill;stop-color:#000000" id="rect2489-3" width="1.5463724" height="1.8720912" x="164.72731" y="141.38434" /><rect style="font-variation-settings:normal;fill:#c24b99;fill-opacity:1;stroke:#3c1f56;stroke-width:1.05833;stroke-linecap:round;stroke-linejoin:round;stroke-miterlimit:4;stroke-dasharray:none;stroke-dashoffset:0;stroke-opacity:1;paint-order:stroke markers fill;stop-color:#000000" id="rect2491-5" width="1.5463724" height="1.8720912" x="167.61578" y="141.38434" /><rect style="font-variation-settings:normal;fill:#00ffff;fill-opacity:1;stroke:#1542b7;stroke-width:1.05833;stroke-linecap:round;stroke-linejoin:round;stroke-miterlimit:4;stroke-dasharray:none;stroke-dashoffset:0;stroke-opacity:1;paint-order:stroke markers fill;stop-color:#000000" id="rect2493-1" width="1.5463724" height="1.8720912" x="170.5262" y="141.38434" /><rect style="font-variation-settings:normal;fill:#12fa05;fill-opacity:1;stroke:#0a4447;stroke-width:1.05833;stroke-linecap:round;stroke-linejoin:round;stroke-miterlimit:4;stroke-dasharray:none;stroke-dashoffset:0;stroke-opacity:1;paint-order:stroke markers fill;stop-color:#000000" id="rect2495-5" width="1.5463724" height="1.8720912" x="173.37097" y="141.38434" /><rect style="font-variation-settings:normal;fill:#f9393f;fill-opacity:1;stroke:#651038;stroke-width:1.05833;stroke-linecap:round;stroke-linejoin:round;stroke-miterlimit:4;stroke-dasharray:none;stroke-dashoffset:0;stroke-opacity:1;paint-order:stroke markers fill;stop-color:#000000" id="rect2497-2" width="1.5463724" height="1.8720912" x="176.28139" y="141.38434" /><rect style="font-variation-settings:normal;fill:#cccccc;fill-opacity:1;stroke:#3e3e3e;stroke-width:1.05833;stroke-linecap:round;stroke-linejoin:round;stroke-miterlimit:4;stroke-dasharray:none;stroke-dashoffset:0;stroke-opacity:1;paint-order:stroke markers fill;stop-color:#000000" id="rect2499-8" width="1.5463724" height="1.8720912" x="179.16991" y="141.38434" /><rect style="font-variation-settings:normal;fill:#f2f20b;fill-opacity:1;stroke:#9b6a00;stroke-width:1.05833;stroke-linecap:round;stroke-linejoin:round;stroke-miterlimit:4;stroke-dasharray:none;stroke-dashoffset:0;stroke-opacity:1;paint-order:stroke markers fill;stop-color:#000000" id="rect2501-0" width="1.5463724" height="1.8720912" x="182.08035" y="141.38434" /><rect style="font-variation-settings:normal;fill:#823cff;fill-opacity:1;stroke:#380f84;stroke-width:1.05833;stroke-linecap:round;stroke-linejoin:round;stroke-miterlimit:4;stroke-dasharray:none;stroke-dashoffset:0;stroke-opacity:1;paint-order:stroke markers fill;stop-color:#000000" id="rect2503-0" width="1.5463724" height="1.8720912" x="184.96886" y="141.38434" /><rect style="font-variation-settings:normal;fill:#ff7700;fill-opacity:1;stroke:#663000;stroke-width:1.05833;stroke-linecap:round;stroke-linejoin:round;stroke-miterlimit:4;stroke-dasharray:none;stroke-dashoffset:0;stroke-opacity:1;paint-order:stroke markers fill;stop-color:#000000" id="rect2505-7" width="1.5463724" height="1.8720912" x="187.87927" y="141.38434" /><rect style="font-variation-settings:normal;fill:#0033ff;fill-opacity:1;stroke:#000075;stroke-width:1.05833;stroke-linecap:round;stroke-linejoin:round;stroke-miterlimit:4;stroke-dasharray:none;stroke-dashoffset:0;stroke-opacity:1;paint-order:stroke markers fill;stop-color:#000000" id="rect2507-7" width="1.5463724" height="1.8720912" x="190.76779" y="141.38434" /><rect style="font-variation-settings:normal;fill:#e30000;fill-opacity:1;stroke:#300c00;stroke-width:1.05833;stroke-linecap:round;stroke-linejoin:round;stroke-miterlimit:4;stroke-dasharray:none;stroke-dashoffset:0;stroke-opacity:1;paint-order:stroke markers fill;stop-color:#000000" id="rect2509-9" width="1.5463724" height="1.8720912" x="193.67825" y="141.38434" /><rect style="font-variation-settings:normal;fill:#e14eff;fill-opacity:1;stroke:#270054;stroke-width:1.05833;stroke-linecap:round;stroke-linejoin:round;stroke-miterlimit:4;stroke-dasharray:none;stroke-dashoffset:0;stroke-opacity:1;paint-order:stroke markers fill;stop-color:#000000" id="rect2489-9-8" width="1.5463724" height="1.8720912" x="196.5856" y="141.37257" /></g></svg>
